<?xml version="1.0" encoding="utf-8"?>
<!-- Generator: Adobe Illustrator 21.0.0, SVG Export Plug-In . SVG Version: 6.00 Build 0)  -->
<svg version="1.1" id="Capa_1" xmlns="http://www.w3.org/2000/svg" xmlns:xlink="http://www.w3.org/1999/xlink" x="0px" y="0px"
	 viewBox="0 0 56 56" style="enable-background:new 0 0 56 56;" xml:space="preserve">
<style type="text/css">
	.st0{fill:#002D51;}
	.st1{fill:#FFFFFF;}
</style>
<g>
	<path class="st0" d="M56,16.2c0-8.8-7.2-16-16-16H16c-8.8,0-16,7.2-16,16v14c0,8.5,6.6,15.4,15,15.9v-3.9c0-0.6,0.4-1,1-1
		s1,0.4,1,1v4v1v8.6l1.4-1.4c5.3-5.3,12.4-8.2,19.9-8.2H40c8.8,0,16-7.2,16-16V16.2z"/>
	<circle class="st1" cx="15" cy="23.2" r="3"/>
	<circle class="st1" cx="28" cy="23.2" r="3"/>
	<circle class="st1" cx="41" cy="23.2" r="3"/>
</g>
</svg>
