<?xml version="1.0" encoding="utf-8"?>
<!-- Generator: Adobe Illustrator 21.0.0, SVG Export Plug-In . SVG Version: 6.00 Build 0)  -->
<svg version="1.1" id="Layer_1" xmlns="http://www.w3.org/2000/svg" xmlns:xlink="http://www.w3.org/1999/xlink" x="0px" y="0px"
	 viewBox="0 0 792 612" style="enable-background:new 0 0 792 612;" xml:space="preserve">
<style type="text/css">
	.st0{fill:#FFFFFF;}
</style>
<g>
	<path class="st0" d="M149.6,260.3c2.6,18.1,4.3,21.1,9.9,27.5c-5.2-12.3,11.8-41.1,14.1-39.6c0,0-12.4,19.1-9.1,37.7
		c3.3,18.6,18,25.5,18,25.5c19.4,13.2,13.4,21.6,14.7,22c1.4,0.4,6.8-7.9,6.8-7.9s2.1-9.6-2.5-16.1c-9.9-14-8.5-21.8-8-24.3
		c-0.4,4,4,18.7,15.7,27.6c10.7,8.2,9.3,23,9.3,23s10.3-5.6,15.3-11.9s5.4-13.8,5.2-18.6c-0.2-4.8-3.9-14.4-11.2-19.1
		c2.1,6.5-3.9,5.9-6.4,4.6s-1.7-0.7-8.5-8s-11-19.2-8-26.3c4.5-11,10.7-17,14.2-17.7c-9-1.7-16.4,7.7-16.4,7.7s2.9-5.4,3-12
		c0.1-7.6-1.2-13.8-21.5-4.8c8.9-8.2,21.1-11.1,30.4-11.6c9.3-0.6,19.9,4.4,24.2,6.1s3.1-4,3.1-4l5.8,3.8c0,0-7,3.1-10.3,2.1
		c-15.3-4.8-24.8-7.9-32.4-4.4c22.4-1.7,21.9,13.8,21.9,13.8s-7.6-13.6-17-4.4c6.8-1.3,16.5,1.7,9.7,13.9
		c-6.8,12.3-11,12.2-10.9,22.6s10.7,17.8,10.7,17.8s-5.8-18.4-3.3-13.6s14.2,9.5,19.4,14.3c5,4.7,6.9,10,10.2,20
		c3.1-14-1.1-19.6-4-23.5c-2.9-3.8-7-5.8-11.4-10.1c-4.4-4.4-7.4-7.8-8-11.8c-0.5-5.3,0.1-6.4,1.6-9c0.8,12.8,10,20.1,17.4,20.1
		c-8.1-6.5-7.4-8.8-7.4-10.9c-0.1-2.5,2-5.2,3.6-2.1c4.1,8.7,11.2-1.3,11.4,4.2c-3.5,0.2-0.6,6.9,0,8.2c0.6,1.3,7,4.4,11,1.7
		c4.1-2.7,11.1-8.2,14.6-7.4c0.1,1.2-0.4,2.8-1.2,3.6c2.9-0.5,4.4-8,2.6-8.7c0.2,0.6-0.6,2.3-2.6,2.4c-3.6-0.2-0.4-4.4-5.8-4.5
		c-4.4-0.1-3.7-5.1-3.7-5.1s4.7,4.4,9.3,3.1c4.7-1.3,6.7-0.7,6.7-0.7s0-0.4-1.4-2.5s-4.3-4.8-9.3-8.4c-5-3.6-12.8-6.9-12.8-6.9
		s2.7-1.9,2.3-5c-0.4-3.1-3.3-0.8-3.7-3.6c-0.4-2.9-0.8-10.4-4.3-14.8s-9.4-10.4-30.4-17.6c13.4,11.3,14.9,8.4,17,20.3
		c-3.7-4.7-5.6-5.9-5.6-5.9s-8.5-12.3-24.8-12.5s-32.3,7.1-33.7,7.9c-1.9,1.4,13.9-0.8,20.3,1.2c-5.9,1.1-20,4-28.9,11.6
		C158.9,225,147,242.1,149.6,260.3z M248.8,237.7c1,0.5,0.5-0.4,3.5,0.4c3,0.9,7.3,7.2,7.3,7.2c-3.3-0.6-7.4-4.3-9-4.4
		c-1.6-0.1-1.3,1.1-4,1.1c-2.8,0-2-2.8-4.8-3.4c-2.8-0.6-4.7,0.6-6.1,2.1c-0.2-1.7,6-6.1,8.5-6.1S247.8,237.2,248.8,237.7z"/>
	<path class="st0" d="M271.8,268.8c0,0-3.9,0.9-8,3.3s-6.8,5.2-7.6,6.7c-0.8,1.5-0.4,3.3,0.9,4.3s2.9,1.4,2.8,2.6
		c-0.1,1.1-0.3,3.7-1.7,5.5c2.5,0.1,4-0.3,6.2-1.6c2.1-1.3,7.1-3.6,5.4-2.6s4.1-3.2,4.6-5.4C274.8,279.5,273.4,270.3,271.8,268.8z"
		/>
	<path class="st0" d="M243.2,275.4c0,0,14,16.7,13.7,23.3c-0.2,6.7-4.5,16.2-16.8,22.2c8.4-10,9.5-15.8,10-23.8
		S247.3,281.3,243.2,275.4z"/>
</g>
<g>
	<path class="st0" d="M309.6,294.6v0.8c-1.5,0.2-2.7,0.8-3.8,1.7c-1.1,0.9-2.1,2.9-3.2,6.1l-11.3,31.5h-1.1l-13.5-34.1
		c-0.6-1.7-1.4-3-2.4-3.8c-0.9-0.8-2.3-1.3-4.1-1.4v-0.8h18.1v0.8c-0.9,0.1-1.6,0.2-2.2,0.4c-0.6,0.2-0.8,0.8-0.8,1.8
		c0,0.7,0.2,1.6,0.7,2.8l7.7,19.6l6.2-17.3c0.5-1.4,0.8-2.6,0.8-3.7c0-0.6-0.2-1.3-0.7-2.1c-0.5-0.8-1.6-1.2-3.3-1.4v-0.8h12.9
		V294.6z"/>
	<path class="st0" d="M311.2,295.3v-0.7h18.6v0.8c-2.1,0-3.4,0.5-4,1.4s-0.9,2.2-0.9,3.7v27.9c0,0.9,0.1,1.7,0.2,2.4
		s0.6,1.3,1.3,1.9c0.7,0.6,1.7,0.8,3.2,0.8h0.2v0.8h-18.6v-0.8c2,0,3.4-0.5,4-1.4s0.9-2.2,0.9-3.7v-27.9c0-1.8-0.4-3.2-1.2-4
		C314.1,295.7,312.8,295.3,311.2,295.3z"/>
	<path class="st0" d="M346.4,315.7h-1.3v12.7c0,1.5,0.2,2.6,0.7,3.4s1,1.2,1.6,1.4c0.6,0.2,1.5,0.3,2.6,0.4v0.7h-18.6v-0.8
		c2.1,0,3.4-0.5,4-1.4s0.9-2.2,0.9-3.7v-27.8c0-1.9-0.4-3.2-1.2-4c-0.8-0.8-2-1.2-3.7-1.2v-0.8H352c2.7,0,5.1,0.4,7.1,1.3
		c2,0.8,3.6,2,4.7,3.6c1.1,1.5,1.6,3.3,1.6,5.3c0,1.6-0.3,3.1-1,4.3c-0.7,1.3-1.6,2.3-2.8,3.1c-1.2,0.8-2.4,1.4-3.9,1.9
		c1.8,1.2,3.6,3.2,5.4,6.2l4.7,8.1c0.8,1.4,1.6,2.5,2.2,3.2c0.7,0.8,1.3,1.3,1.8,1.5s1.1,0.4,1.7,0.5v0.8h-12.8
		c-1.2-2.2-2.2-4-2.9-5.4c-2.1-4.1-3.7-7-4.6-8.6s-2-2.8-3-3.5C349.3,316,348,315.7,346.4,315.7z M347.3,296.8h-2.2v16.7h1.8
		c3.1,0,5.4-0.7,7-2.2s2.3-3.6,2.3-6.4c0-1.7-0.3-3.2-1-4.4c-0.7-1.2-1.7-2.1-3-2.7C350.9,297.1,349.3,296.8,347.3,296.8z"/>
	<path class="st0" d="M377,294.6h27.7c1.3,0,2.3-0.2,3.2-0.5h0.8l0.2,9.3h-0.8c-0.4-2.7-1.1-4.5-2-5.2s-2.1-1.1-3.5-1.1h-7.4v31.3
		c0,1,0.1,1.9,0.4,2.7c0.2,0.7,0.7,1.3,1.4,1.8c0.7,0.5,1.8,0.7,3.2,0.7v0.8h-18.7v-0.8c2.1,0,3.4-0.5,4-1.4s0.9-2.2,0.9-3.7v-31.3
		H379c-1.3,0-2.3,0.4-3.1,1.2c-0.8,0.8-1.6,2.5-2.3,5.1h-0.8l0.2-9.3h0.8C374.6,294.4,375.7,294.6,377,294.6z"/>
	<path class="st0" d="M442.4,334.2v-7.5h-0.1c-2.9,5.3-7.2,7.9-12.9,7.9c-2.9,0-5.5-0.7-7.8-2s-4-3.1-5.1-5.1
		c-1.1-2.2-1.7-5.6-1.7-10.3v-16.7c0-1.7-0.3-3-1-3.8c-0.7-0.9-2-1.3-3.9-1.3v-0.8h18.6v0.8c-2,0-3.4,0.5-4,1.4s-0.9,2.2-0.9,3.7
		v17.7c0,2.6,0.3,4.7,0.9,6.2c0.4,1.1,1.1,2,1.9,2.8s1.8,1.4,2.9,1.8s2.2,0.6,3.4,0.6c1.2,0,2.4-0.2,3.6-0.7
		c1.1-0.4,2.2-1.1,3.1-1.9s1.6-1.8,2.1-2.8c0.6-1.5,1-4,1-7.2v-16.5c0-1.9-0.4-3.2-1.1-4c-0.8-0.8-2-1.2-3.8-1.2v-0.7h18.6v0.8
		c-2,0-3.4,0.5-4,1.4s-0.9,2.2-0.9,3.8v27.9c0,1.8,0.4,3.1,1.1,3.9s2,1.3,3.9,1.3v0.7h-13.9V334.2z"/>
</g>
<g>
	<path class="st0" d="M483.5,334.2h-23.9v-0.8c2.1,0,3.4-0.5,4-1.4s0.9-2.2,0.9-3.7v-27.9c0-1.4-0.3-2.6-0.8-3.6s-1.8-1.5-3.8-1.5
		h-0.3v-0.8h20.7c2.7,0,5,0.3,6.8,0.9c0.9,0.4,1.9,0.9,2.9,1.5c1,0.7,1.9,1.6,2.8,2.8c0.8,1.2,1.3,2.6,1.3,4.3
		c0,2.1-0.6,3.8-1.8,5.1c-1.2,1.3-2.6,2.2-4,2.7s-2.9,0.9-4.3,1.2v0.1c1.1,0.1,2.4,0.3,3.8,0.6c1.4,0.3,2.8,0.8,4.1,1.6
		c1.3,0.7,2.4,1.8,3.4,3.1c0.9,1.4,1.4,3.1,1.4,5.2c0,2.2-0.6,4.1-1.7,5.6c-1.1,1.6-2.6,2.8-4.5,3.7c-1.1,0.5-2.2,0.8-3.2,0.9
		C486.2,334.2,485,334.2,483.5,334.2z M476.1,296.8h-2.7v15.9h2.7c2,0,4-0.5,5.9-1.5s2.9-3.2,2.9-6.7c0-2.6-0.8-4.6-2.4-6.1
		c-0.6-0.6-1.3-1-2.2-1.3C479.3,296.9,478,296.8,476.1,296.8z M476.4,314.9h-3v12.7c0,1.9,0.5,3.1,1.4,3.6c1,0.5,2.2,0.8,3.6,0.8
		c1,0,1.9-0.1,2.7-0.2c0.9-0.1,1.8-0.4,2.7-0.9s1.7-1.3,2.3-2.5c0.6-1.2,0.9-2.7,0.9-4.7c0-2.2-0.5-3.9-1.4-5.2s-2.2-2.2-3.8-2.7
		C480.3,315.2,478.4,314.9,476.4,314.9z"/>
	<path class="st0" d="M520.4,294.2l13.3,34.3c0.7,1.8,1.6,3,2.5,3.6s2.2,1.1,3.6,1.3v0.8H521v-0.8c2.6-0.1,3.9-1,3.9-2.4
		c0-0.2,0-0.6-0.1-1s-0.2-0.9-0.3-1.3s-0.2-0.8-0.3-0.9l-3.3-8.4H509l-2.8,8.1c-0.4,1-0.5,1.8-0.5,2.6c0,1.2,0.4,2,1.1,2.5
		c0.7,0.4,1.6,0.7,2.6,0.8v0.8h-11.9v-0.8c1.2-0.1,2.4-0.7,3.5-1.7s2.1-2.9,3.1-5.7l11.3-31.8H520.4z M509.9,316.8h9.9l-5.1-13.4
		L509.9,316.8z"/>
	<path class="st0" d="M555.6,294.6l24.2,25.6V302c0-2.4-0.5-4-1.5-4.9s-2.5-1.5-4.4-1.7v-0.8h13.7v0.8c-1.5,0.2-2.6,0.6-3.4,1.2
		c-0.7,0.7-1.2,1.4-1.4,2.3s-0.3,1.9-0.3,3.1v32.7h-1l-29-30.5v22.3c0,1.9,0.4,3.5,1.2,4.8s2.3,2.1,4.4,2.2v0.8h-14.2v-0.8
		c4-0.3,5.9-2.3,5.9-5.8v-26.3c-0.1-0.1-0.3-0.2-0.4-0.4c-0.2-0.2-0.4-0.4-0.8-0.8c-0.4-0.4-0.7-0.7-1-1c-2.4-2.3-4.5-3.6-6.3-3.9
		v-0.8L555.6,294.6L555.6,294.6z"/>
	<path class="st0" d="M611.6,294.6h16.7v0.8c-2.1,0.1-4.2,0.9-6.2,2.1c-2,1.3-3.8,2.7-5.4,4.4l-7.2,7.4l16.4,19.9
		c2.3,2.7,4.4,4.2,6.3,4.3v0.8h-18.4v-0.8c0.6-0.1,1.2-0.2,1.6-0.4c0.4-0.2,0.7-0.6,0.7-1.1s-0.4-1.2-1.1-2.1l-12.3-15.1h-0.2v13.6
		c0,1.8,0.4,3.2,1.2,3.9s2,1.2,3.7,1.2v0.8h-18.6v-0.8c2.1,0,3.4-0.5,4-1.4s0.9-2.2,0.9-3.7v-27.9c0-1.8-0.3-3.1-1-3.9
		s-2-1.3-3.9-1.3v-0.7h18.6v0.8c-2.1,0-3.4,0.5-4,1.4s-0.9,2.2-0.9,3.7v13l11.7-12.4c1.2-1.4,1.8-2.5,1.8-3.4c0-1.6-1.5-2.4-4.5-2.4
		v-0.7H611.6z"/>
</g>
</svg>
